<svg xmlns="http://www.w3.org/2000/svg" width="26.492" height="26.047" viewBox="0 0 26.492 26.047">
  <g id="Group_7889" data-name="Group 7889" transform="translate(-1250.355 522.766)">
    <path id="Path_9281" data-name="Path 9281" d="M1275.661-367.1a1.757,1.757,0,0,1-1.242,1.727,18.117,18.117,0,0,1-2.623.669c-2.526.472-5.065.874-7.588,1.363a13.057,13.057,0,0,0-3.869,1.377,7.552,7.552,0,0,0-.677.434c-.271.191-.522.358-.422.8a.976.976,0,0,1-.283.712c-.542.595-1.121,1.157-1.7,1.716a.975.975,0,0,1-1.442-.005q-2.431-2.412-4.843-4.843a.966.966,0,0,1-.01-1.415c.565-.59,1.151-1.16,1.731-1.735a1.084,1.084,0,0,1,1-.263.528.528,0,0,0,.392-.111q.8-.764,1.571-1.562a4.849,4.849,0,0,1,3.628-1.543c1.018,0,2.037-.008,3.055,0a2,2,0,0,1,1.491.656.69.69,0,0,0,.448.194q4.549.017,9.1.007a2.7,2.7,0,0,1,1.419.329A1.65,1.65,0,0,1,1275.661-367.1Zm-11.39-.483a1.943,1.943,0,0,1-1.891,1.6c-.514.015-1.029.011-1.544,0a.692.692,0,0,1-.749-.69.679.679,0,0,1,.746-.65c.492-.006.985,0,1.477,0a.567.567,0,0,0,.627-.557.57.57,0,0,0-.631-.554c-1.029,0-2.058,0-3.088.008a3.461,3.461,0,0,0-2.552,1.081c-.555.568-1.124,1.122-1.686,1.685-.036.036-.06.086-.047.067l3.41,3.413a9.929,9.929,0,0,1,3.731-1.965,57.5,57.5,0,0,1,8.368-1.689c1.089-.181,2.17-.417,3.245-.67.488-.115.672-.375.62-.667s-.29-.4-.787-.4h-9.25Zm-12.043,3.7,4.307,4.31,1.152-1.143-4.31-4.314Z" transform="translate(0 -139.025)" fill="#47a942" stroke="#47a942" stroke-width="0.5"/>
    <path id="Path_9282" data-name="Path 9282" d="M1280.049-511.181c.677-5.052,3.469-8.182,8.384-9.457a1.879,1.879,0,0,1,1.9-1.877c1.006-.022,1.671.668,1.875,1.868,4.91,1.27,7.708,4.4,8.4,9.464.222,0,.477-.005.731,0a.659.659,0,0,1,.7.652.673.673,0,0,1-.676.687c-.089.006-.179,0-.268,0h-21.549a2.468,2.468,0,0,1-.335-.009.684.684,0,0,1-.6-.692.669.669,0,0,1,.654-.638C1279.527-511.191,1279.8-511.181,1280.049-511.181Zm19.138-.015a8.954,8.954,0,0,0-9.908-8.156,8.594,8.594,0,0,0-6.1,3.576,8.424,8.424,0,0,0-1.716,4.579Zm-8.385-9.585a.444.444,0,0,0-.468-.386.443.443,0,0,0-.482.386Z" transform="translate(-25.442)" fill="#47a942" stroke="#47a942" stroke-width="0.5"/>
  </g>
</svg>
