<svg xmlns="http://www.w3.org/2000/svg" width="31.019" height="26.904" viewBox="0 0 31.019 26.904">
  <g id="Group_7888" data-name="Group 7888" transform="translate(-1747.15 513.613)">
    <path id="Path_9268" data-name="Path 9268" d="M1751.36-503.937a.728.728,0,0,0-.245-.8,1.217,1.217,0,0,1-.445-1.065,1.064,1.064,0,0,1,.324-.523c.119-.13.319-.185.438-.315a11.894,11.894,0,0,1,5.127-3.152,17.293,17.293,0,0,1,3.727-.819,2.283,2.283,0,0,0,.256-.058,1.734,1.734,0,0,1,1.066-2.583,3.206,3.206,0,0,1,2.058-.082,1.792,1.792,0,0,1,1.314,2.688c.672.124,1.347.226,2.011.375a13.916,13.916,0,0,1,5.791,2.628c.328.263.613.577.93.854.2.176.448.3.63.495a.921.921,0,0,1,.272.52,1.225,1.225,0,0,1-.444,1.034.721.721,0,0,0-.247.8c.112-.041.219-.076.323-.12.5-.21,1-.429,1.5-.631a1.522,1.522,0,0,1,2.07.826,1.515,1.515,0,0,1-.811,2.1c-.932.412-1.874.8-2.818,1.185a.386.386,0,0,0-.3.424c.012,1.85.007,3.7.006,5.55a2.687,2.687,0,0,1-2.872,2.868c-.411,0-.822.013-1.232,0a.382.382,0,0,0-.431.293,7.031,7.031,0,0,1-5.106,4.389,7.186,7.186,0,0,1-8.325-4.355.42.42,0,0,0-.474-.329,13.365,13.365,0,0,1-1.7-.03,2.614,2.614,0,0,1-2.374-2.629q-.016-2.874,0-5.749a.388.388,0,0,0-.291-.43q-1.4-.564-2.788-1.17a1.547,1.547,0,0,1-.687-2.4,1.49,1.49,0,0,1,1.845-.565c.537.208,1.063.443,1.595.665C1751.154-504.013,1751.246-503.981,1751.36-503.937Zm.989-1.35a7.9,7.9,0,0,1,.1.867c.008,2.027,0,4.054,0,6.081,0,1.307-.006,2.614,0,3.921a1.54,1.54,0,0,0,1.406,1.582c.536.053,1.082.01,1.651.01a7.117,7.117,0,0,1,1.408-5.7,7.168,7.168,0,0,1,5.171-2.777v-1.04c-.371,0-.724,0-1.077,0-.412-.005-.634-.186-.641-.513s.226-.546.646-.548q1.631-.006,3.263,0c.4,0,.628.2.631.529s-.222.525-.623.531c-.363.006-.726,0-1.115,0,0,.285,0,.527,0,.768,0,.087.01.173.016.274a7.146,7.146,0,0,1,5.182,2.787,7.142,7.142,0,0,1,1.4,5.709c.453,0,.863,0,1.272,0a1.627,1.627,0,0,0,1.79-1.8q0-4.818,0-9.637c0-.349.055-.7.084-1.05Zm10.3,5.041a6.167,6.167,0,0,0-6.183,6.2,6.181,6.181,0,0,0,6.269,6.116,6.192,6.192,0,0,0,6.085-6.168A6.168,6.168,0,0,0,1762.648-500.246Zm9.889-6.141.061-.086a1.508,1.508,0,0,1-.224-.137,11.015,11.015,0,0,0-3.466-2,18.32,18.32,0,0,0-8.847-.91,14.455,14.455,0,0,0-5.934,2.014c-.5.312-.95.688-1.424,1.035l.055.08Zm-9.769-6.114a8.167,8.167,0,0,0-1.175.492c-.357.218-.337.583-.026.863a2.047,2.047,0,0,0,2.386.005c.317-.28.342-.64-.015-.863A7.883,7.883,0,0,0,1762.767-512.5Zm-11.383,10.9c0-.369.009-.668-.005-.966a.311.311,0,0,0-.118-.235c-.731-.32-1.462-.64-2.206-.926a.469.469,0,0,0-.621.305.465.465,0,0,0,.226.651C1749.545-502.372,1750.444-502,1751.384-501.6Zm22.544-.012c.9-.384,1.775-.748,2.642-1.13a.5.5,0,0,0,.28-.686.518.518,0,0,0-.717-.269c-.451.179-.9.372-1.344.561-.936.4-.936.4-.887,1.419A.757.757,0,0,0,1773.928-501.612Z" fill="#47a942" stroke="#47a942" stroke-width="0.3"/>
    <path id="Path_9269" data-name="Path 9269" d="M1811.252-358.088c0-.719,0-1.438,0-2.157,0-.4.189-.629.516-.638.344-.009.548.223.548.639,0,1.382.007,2.765,0,4.147a.689.689,0,0,0,.435.735.5.5,0,0,1,.27.691.536.536,0,0,1-.7.268,1.612,1.612,0,0,1-1.068-1.5c0-.022,0-.044,0-.066Z" transform="translate(-58.269 -139.034)" fill="#47a942" stroke="#47a942" stroke-width="0.3"/>
    <path id="Path_9270" data-name="Path 9270" d="M1841.388-369.5c-.126-.1-.323-.183-.388-.327a.587.587,0,0,1,.02-.517c.522-.57,1.071-1.118,1.636-1.647a.458.458,0,0,1,.662.049.463.463,0,0,1,.053.686c-.523.555-1.072,1.086-1.62,1.616C1841.68-369.576,1841.552-369.565,1841.388-369.5Z" transform="translate(-85.332 -128.798)" fill="#47a942" stroke="#47a942" stroke-width="0.3"/>
    <path id="Path_9271" data-name="Path 9271" d="M1970.985-372.682a2.332,2.332,0,0,1,.442.255c.486.467.962.944,1.435,1.426a.519.519,0,0,1,.034.791.532.532,0,0,1-.771-.035c-.491-.478-.973-.965-1.456-1.451a.468.468,0,0,1-.114-.6A2.1,2.1,0,0,1,1970.985-372.682Z" transform="translate(-203.368 -128.282)" fill="#47a942" stroke="#47a942" stroke-width="0.3"/>
    <path id="Path_9272" data-name="Path 9272" d="M1812.264-390.456c0,.177.008.354,0,.53a.54.54,0,0,1-.522.538.531.531,0,0,1-.535-.523c-.014-.364-.015-.729,0-1.093a.507.507,0,0,1,.537-.512.515.515,0,0,1,.521.53C1812.272-390.81,1812.264-390.633,1812.264-390.456Z" transform="translate(-58.216 -111.12)" fill="#47a942" stroke="#47a942" stroke-width="0.3"/>
    <path id="Path_9273" data-name="Path 9273" d="M1913.291-338.25a3.062,3.062,0,0,1,.292-.437q1.757-1.766,3.524-3.521a.537.537,0,0,1,.819-.065.536.536,0,0,1-.07.816q-1.76,1.762-3.526,3.52a.5.5,0,0,1-.654.146A1.979,1.979,0,0,1,1913.291-338.25Z" transform="translate(-151.25 -155.845)" fill="#47a942" stroke="#47a942" stroke-width="0.3"/>
    <path id="Path_9274" data-name="Path 9274" d="M1915.136-242.5a.528.528,0,0,1-.539.518.526.526,0,0,1-.522-.534.541.541,0,0,1,.538-.523A.542.542,0,0,1,1915.136-242.5Z" transform="translate(-151.965 -246.418)" fill="#47a942" stroke="#47a942" stroke-width="0.3"/>
    <path id="Path_9275" data-name="Path 9275" d="M1856.183-301.266a.528.528,0,0,1,.536.519.513.513,0,0,1-.515.533.528.528,0,0,1-.544-.512A.546.546,0,0,1,1856.183-301.266Z" transform="translate(-98.736 -193.358)" fill="#47a942" stroke="#47a942" stroke-width="0.3"/>
    <path id="Path_9276" data-name="Path 9276" d="M1973.023-300.214a.513.513,0,0,1-.514-.533.527.527,0,0,1,.535-.519.547.547,0,0,1,.523.54A.529.529,0,0,1,1973.023-300.214Z" transform="translate(-205.21 -193.358)" fill="#47a942" stroke="#47a942" stroke-width="0.3"/>
    <path id="Path_9277" data-name="Path 9277" d="M1873.341-342.458a.543.543,0,0,1,.52.542.525.525,0,0,1-.543.51.521.521,0,0,1-.518-.533A.54.54,0,0,1,1873.341-342.458Z" transform="translate(-114.353 -155.822)" fill="#47a942" stroke="#47a942" stroke-width="0.3"/>
    <path id="Path_9278" data-name="Path 9278" d="M1873.311-260.077a.541.541,0,0,1,.54.521.522.522,0,0,1-.522.531.522.522,0,0,1-.54-.513A.54.54,0,0,1,1873.311-260.077Z" transform="translate(-114.345 -230.89)" fill="#47a942" stroke="#47a942" stroke-width="0.3"/>
    <path id="Path_9279" data-name="Path 9279" d="M1955.868-259.024a.523.523,0,0,1-.532-.521.541.541,0,0,1,.53-.531.54.54,0,0,1,.532.529A.52.52,0,0,1,1955.868-259.024Z" transform="translate(-189.562 -230.891)" fill="#47a942" stroke="#47a942" stroke-width="0.3"/>
    <path id="Path_9280" data-name="Path 9280" d="M1915.128-358.9a.529.529,0,0,1-.539.515.53.53,0,0,1-.522-.532.527.527,0,0,1,.539-.513A.525.525,0,0,1,1915.128-358.9Z" transform="translate(-151.957 -140.361)" fill="#47a942" stroke="#47a942" stroke-width="0.3"/>
  </g>
</svg>
